# xmcd
# 
# Track frame offsets:
#     150
#     17190
#     46330
#     65030
#     87092
#     108600
#     129250
#     143217
#     162087
#     176657
#     192230
#     209055
#     254730
# 
# Disc length: 3400
# 
# Revision: 4
# Processed by: cddbd v1.5.2PL0 Copyright (c) Steve Scherf et al.
# Submitted via: fre:ac v1.0.17
# 
DISCID=c20d460d
DTITLE=Various Artist - The Road To Ensenada
DYEAR=1996
DGENRE=Country
TTITLE0=Lyle Lovett - Don't Touch My Hat
TTITLE1=Lyle Lovett - Her First Mistake
TTITLE2=Lyle Lovett - Fiona
TTITLE3=Lyle Lovett - That's Right (You're Not From Texas)
TTITLE4=Lyle Lovett - Who Loves You Better
TTITLE5=Lyle Lovett - Private Conversation
TTITLE6=Lyle Lovett - Promises
TTITLE7=Lyle Lovett - It Ought To Be Easier
TTITLE8=Lyle Lovett - I Can't Love You Anymore
TTITLE9=Lyle Lovett and Randy Newman - Long Tall Texan
TTITLE10=Lyle Lovett - Christmas Morning
TTITLE11=Lyle Lovett - The Road To Ensenada - The Girl In The Corner
TTITLE12=Lyle Lovett - [Empty]
EXTD=YEAR: 1996 ID3G: 2
EXTT0=
EXTT1=
EXTT2=
EXTT3=
EXTT4=
EXTT5=
EXTT6=
EXTT7=
EXTT8=
EXTT9=
EXTT10=
EXTT11=
EXTT12=
PLAYORDER=
